<?xml version="1.0" encoding="UTF-8" standalone="no"?>
<!-- Created with Inkscape (http://www.inkscape.org/) -->

<svg
   width="755.87402"
   height="755.87402"
   viewBox="0 0 755.87403 755.87406"
   version="1.1"
   id="svg5"
   sodipodi:docname="cameralock-unlocked.svg"
   inkscape:version="1.1 (c4e8f9e, 2021-05-24)"
   xmlns:inkscape="http://www.inkscape.org/namespaces/inkscape"
   xmlns:sodipodi="http://sodipodi.sourceforge.net/DTD/sodipodi-0.dtd"
   xmlns="http://www.w3.org/2000/svg"
   xmlns:svg="http://www.w3.org/2000/svg">
  <sodipodi:namedview
     id="namedview7"
     pagecolor="#ffffff"
     bordercolor="#111111"
     borderopacity="1"
     inkscape:pageshadow="0"
     inkscape:pageopacity="0"
     inkscape:pagecheckerboard="true"
     inkscape:document-units="px"
     showgrid="false"
     units="px"
     viewbox-x="0"
     inkscape:snap-global="false"
     inkscape:zoom="0.48030309"
     inkscape:cx="-49.968448"
     inkscape:cy="316.46684"
     inkscape:window-width="1920"
     inkscape:window-height="1028"
     inkscape:window-x="0"
     inkscape:window-y="27"
     inkscape:window-maximized="1"
     inkscape:current-layer="svg5"
     fit-margin-top="34"
     fit-margin-left="34"
     fit-margin-right="34"
     fit-margin-bottom="34" />
  <defs
     id="defs2" />
  <g
     id="unlocked"
     transform="translate(-854.18898,-3.795276)">
    <path
       d="m 979.65254,220.72239 c -50.53361,0 -91.46356,-40.95281 -91.46356,-91.46355 0,-50.510766 40.9528,-91.463564 91.46356,-91.463564 50.51076,0 91.46356,40.952798 91.46356,91.463564 0,50.51074 -40.9528,91.46355 -91.46356,91.46355 z m 228.65886,45.73177 c 16.0519,0 31.3949,-2.90396 45.7318,-8.00306 v 145.19839 c 0,25.24393 -20.4878,45.73178 -45.7318,45.73178 H 979.65254 c -25.24395,0 -45.73178,-20.48785 -45.73178,-45.73178 V 258.4511 c 14.33691,5.0991 29.67992,8.00306 45.73178,8.00306 47.65256,0 89.72576,-24.42077 114.32946,-61.44064 24.6037,37.01987 66.6769,61.44064 114.3294,61.44064 z m 91.4636,22.86589 v 91.46356 l 137.1953,68.59766 V 220.72239 Z M 1208.3114,37.795276 c -50.5107,0 -91.4635,40.952798 -91.4635,91.463564 0,50.51074 40.9528,91.46355 91.4635,91.46355 50.5108,0 91.4636,-40.95281 91.4636,-91.46355 0,-50.510766 -40.9528,-91.463564 -91.4636,-91.463564 z"
       id="path1585-7"
       style="fill:#ffffff;fill-opacity:1;stroke-width:22.8659" />
    <path
       d="m 1465.1968,594.64567 h 50.3937 v 60.47244 h -80.6299 v -60.47244 h 20.1575 v -20.15748 c 0,-11.11685 -9.0406,-20.15748 -20.1575,-20.15748 -11.1168,0 -20.1575,9.04063 -20.1575,20.15748 v 10.07874 h -10.0787 v -10.07874 c 0,-16.69039 13.5358,-30.23622 30.2362,-30.23622 16.7005,0 30.2362,13.54583 30.2362,30.23622 z m 110.8662,10.07874 c 0,66.79181 -54.1531,120.9449 -120.9449,120.9449 -66.7918,0 -120.9449,-54.15309 -120.9449,-120.9449 0,-66.79181 54.1531,-120.94488 120.9449,-120.94488 66.7918,0 120.9449,54.15307 120.9449,120.94488 z m -20.1575,0 c 0,-55.57417 -45.2132,-100.7874 -100.7874,-100.7874 -55.5742,0 -100.7874,45.21323 -100.7874,100.7874 0,55.57418 45.2132,100.7874 100.7874,100.7874 55.5742,0 100.7874,-45.21322 100.7874,-100.7874 z"
       id="path1997"
       style="fill:#ffffff;fill-opacity:1;stroke-width:10.0787" />
  </g>
</svg>
